<svg width="159" height="64" viewBox="0 0 159 64" fill="none" xmlns="http://www.w3.org/2000/svg">
<g filter="url(#filter0_d_5_241)">
<rect x="9.625" y="1.5" width="147" height="47" rx="8.5" stroke="#28AFE4" stroke-width="3" shape-rendering="crispEdges"/>
</g>
<g filter="url(#filter1_d_5_241)">
<path d="M82.835 27.79H85.252C85.1875 28.6455 84.9502 29.4043 84.54 30.0664C84.1299 30.7227 83.5586 31.2383 82.8262 31.6133C82.0938 31.9883 81.2061 32.1758 80.1631 32.1758C79.3604 32.1758 78.6367 32.0352 77.9922 31.7539C77.3535 31.4668 76.8057 31.0596 76.3486 30.5322C75.8975 29.999 75.5518 29.3604 75.3115 28.6162C75.0713 27.8662 74.9512 27.0254 74.9512 26.0938V25.1182C74.9512 24.1865 75.0742 23.3457 75.3203 22.5957C75.5664 21.8457 75.918 21.207 76.375 20.6797C76.8379 20.1465 77.3916 19.7363 78.0361 19.4492C78.6865 19.1621 79.4131 19.0186 80.2158 19.0186C81.2588 19.0186 82.1406 19.2119 82.8613 19.5986C83.582 19.9795 84.1416 20.5039 84.54 21.1719C84.9385 21.8398 85.1787 22.6074 85.2607 23.4746H82.8438C82.7969 22.9355 82.6797 22.4785 82.4922 22.1035C82.3105 21.7285 82.0352 21.4443 81.666 21.251C81.3027 21.0518 80.8193 20.9521 80.2158 20.9521C79.7471 20.9521 79.334 21.04 78.9766 21.2158C78.625 21.3916 78.332 21.6553 78.0977 22.0068C77.8633 22.3525 77.6875 22.7861 77.5703 23.3076C77.4531 23.8232 77.3945 24.4209 77.3945 25.1006V26.0938C77.3945 26.7441 77.4473 27.3271 77.5527 27.8428C77.6582 28.3584 77.8223 28.7949 78.0449 29.1523C78.2676 29.5098 78.5547 29.7822 78.9062 29.9697C79.2578 30.1572 79.6768 30.251 80.1631 30.251C80.7549 30.251 81.2354 30.1572 81.6045 29.9697C81.9795 29.7822 82.2637 29.5068 82.457 29.1436C82.6562 28.7803 82.7822 28.3291 82.835 27.79ZM89.2246 18.5V32H86.8955V18.5H89.2246ZM88.8555 26.9023H88.1699C88.1699 26.2402 88.2578 25.6309 88.4336 25.0742C88.6094 24.5176 88.8584 24.0342 89.1807 23.624C89.5029 23.208 89.8867 22.8857 90.332 22.6572C90.7832 22.4287 91.2812 22.3145 91.8262 22.3145C92.2949 22.3145 92.7197 22.3818 93.1006 22.5166C93.4873 22.6455 93.8184 22.8535 94.0938 23.1406C94.3691 23.4277 94.5801 23.8027 94.7266 24.2656C94.8789 24.7227 94.9551 25.2793 94.9551 25.9355V32H92.6172V25.918C92.6172 25.4785 92.5527 25.1328 92.4238 24.8809C92.2949 24.623 92.1104 24.4385 91.8701 24.3271C91.6357 24.2158 91.3457 24.1602 91 24.1602C90.625 24.1602 90.3027 24.2334 90.0332 24.3799C89.7637 24.5205 89.541 24.7168 89.3652 24.9688C89.1953 25.2207 89.0664 25.5107 88.9785 25.8389C88.8965 26.167 88.8555 26.5215 88.8555 26.9023ZM99.4639 22.4902V32H97.1348V22.4902H99.4639ZM96.9766 20.0029C96.9766 19.6572 97.0938 19.3701 97.3281 19.1416C97.5684 18.9131 97.8906 18.7988 98.2949 18.7988C98.6992 18.7988 99.0186 18.9131 99.2529 19.1416C99.4932 19.3701 99.6133 19.6572 99.6133 20.0029C99.6133 20.3428 99.4932 20.627 99.2529 20.8555C99.0186 21.084 98.6992 21.1982 98.2949 21.1982C97.8906 21.1982 97.5684 21.084 97.3281 20.8555C97.0938 20.627 96.9766 20.3428 96.9766 20.0029ZM106.917 29.9785V25.5928C106.917 25.2705 106.861 24.9922 106.75 24.7578C106.639 24.5234 106.469 24.3418 106.24 24.2129C106.012 24.084 105.722 24.0195 105.37 24.0195C105.06 24.0195 104.787 24.0723 104.553 24.1777C104.324 24.2832 104.148 24.4326 104.025 24.626C103.902 24.8135 103.841 25.0303 103.841 25.2764H101.512C101.512 24.8838 101.605 24.5117 101.793 24.1602C101.98 23.8027 102.247 23.4863 102.593 23.2109C102.944 22.9297 103.363 22.71 103.85 22.5518C104.342 22.3936 104.893 22.3145 105.502 22.3145C106.223 22.3145 106.864 22.4375 107.427 22.6836C107.995 22.9238 108.44 23.2871 108.763 23.7734C109.091 24.2598 109.255 24.8721 109.255 25.6104V29.7588C109.255 30.2334 109.284 30.6406 109.343 30.9805C109.407 31.3145 109.501 31.6045 109.624 31.8506V32H107.26C107.148 31.7598 107.063 31.4551 107.005 31.0859C106.946 30.7109 106.917 30.3418 106.917 29.9785ZM107.242 26.208L107.26 27.5879H105.792C105.429 27.5879 105.109 27.626 104.834 27.7021C104.559 27.7725 104.333 27.8779 104.157 28.0186C103.981 28.1533 103.85 28.3174 103.762 28.5107C103.674 28.6982 103.63 28.9121 103.63 29.1523C103.63 29.3867 103.683 29.5977 103.788 29.7852C103.899 29.9727 104.058 30.1221 104.263 30.2334C104.474 30.3389 104.72 30.3916 105.001 30.3916C105.411 30.3916 105.769 30.3096 106.073 30.1455C106.378 29.9756 106.615 29.7705 106.785 29.5303C106.955 29.29 107.046 29.0615 107.058 28.8447L107.726 29.8467C107.644 30.0869 107.521 30.3418 107.356 30.6113C107.192 30.8809 106.981 31.1328 106.724 31.3672C106.466 31.6016 106.155 31.7949 105.792 31.9473C105.429 32.0996 105.007 32.1758 104.526 32.1758C103.911 32.1758 103.36 32.0527 102.874 31.8066C102.388 31.5605 102.004 31.2236 101.723 30.7959C101.441 30.3682 101.301 29.8818 101.301 29.3369C101.301 28.833 101.395 28.3877 101.582 28.001C101.77 27.6143 102.048 27.2891 102.417 27.0254C102.786 26.7559 103.243 26.5537 103.788 26.4189C104.339 26.2783 104.969 26.208 105.678 26.208H107.242ZM121.059 29.3984C121.059 29.1992 121.006 29.0205 120.9 28.8623C120.795 28.7041 120.596 28.5605 120.303 28.4316C120.016 28.2969 119.594 28.1709 119.037 28.0537C118.545 27.9482 118.091 27.8164 117.675 27.6582C117.259 27.5 116.901 27.3096 116.603 27.0869C116.304 26.8584 116.069 26.5918 115.899 26.2871C115.735 25.9766 115.653 25.6191 115.653 25.2148C115.653 24.8223 115.738 24.4531 115.908 24.1074C116.078 23.7559 116.324 23.4482 116.646 23.1846C116.969 22.915 117.361 22.7041 117.824 22.5518C118.287 22.3936 118.809 22.3145 119.389 22.3145C120.197 22.3145 120.892 22.4463 121.472 22.71C122.058 22.9736 122.506 23.3369 122.816 23.7998C123.127 24.2568 123.282 24.7725 123.282 25.3467H120.962C120.962 25.0947 120.903 24.8662 120.786 24.6611C120.675 24.4561 120.502 24.292 120.268 24.1689C120.033 24.04 119.737 23.9756 119.38 23.9756C119.058 23.9756 118.785 24.0283 118.562 24.1338C118.346 24.2393 118.182 24.377 118.07 24.5469C117.959 24.7168 117.903 24.9043 117.903 25.1094C117.903 25.2617 117.933 25.3994 117.991 25.5225C118.056 25.6396 118.158 25.748 118.299 25.8477C118.439 25.9473 118.63 26.0381 118.87 26.1201C119.116 26.2021 119.418 26.2812 119.775 26.3574C120.484 26.498 121.103 26.6855 121.63 26.9199C122.163 27.1484 122.579 27.4531 122.878 27.834C123.177 28.2148 123.326 28.7012 123.326 29.293C123.326 29.7148 123.235 30.1016 123.054 30.4531C122.872 30.7988 122.608 31.1006 122.263 31.3584C121.917 31.6162 121.504 31.8184 121.023 31.9648C120.543 32.1055 120.001 32.1758 119.397 32.1758C118.524 32.1758 117.786 32.0205 117.183 31.71C116.579 31.3936 116.122 30.9951 115.812 30.5146C115.501 30.0283 115.346 29.5244 115.346 29.0029H117.569C117.587 29.3721 117.687 29.668 117.868 29.8906C118.05 30.1133 118.278 30.2744 118.554 30.374C118.835 30.4678 119.131 30.5146 119.441 30.5146C119.793 30.5146 120.089 30.4678 120.329 30.374C120.569 30.2744 120.751 30.1426 120.874 29.9785C120.997 29.8086 121.059 29.6152 121.059 29.3984ZM129.364 32.1758C128.644 32.1758 127.996 32.0586 127.422 31.8242C126.848 31.5898 126.358 31.2646 125.954 30.8486C125.556 30.4268 125.248 29.9375 125.031 29.3809C124.82 28.8184 124.715 28.2148 124.715 27.5703V27.2188C124.715 26.4863 124.82 25.8213 125.031 25.2236C125.242 24.6201 125.541 24.1016 125.928 23.668C126.314 23.2344 126.777 22.9004 127.316 22.666C127.855 22.4316 128.45 22.3145 129.101 22.3145C129.774 22.3145 130.369 22.4287 130.885 22.6572C131.4 22.8799 131.831 23.1963 132.177 23.6064C132.522 24.0166 132.783 24.5088 132.959 25.083C133.135 25.6514 133.223 26.2812 133.223 26.9727V27.9482H125.77V26.3486H130.938V26.1729C130.926 25.8037 130.855 25.4668 130.727 25.1621C130.598 24.8516 130.398 24.6055 130.129 24.4238C129.859 24.2363 129.511 24.1426 129.083 24.1426C128.737 24.1426 128.436 24.2188 128.178 24.3711C127.926 24.5176 127.715 24.7285 127.545 25.0039C127.381 25.2734 127.258 25.5957 127.176 25.9707C127.094 26.3457 127.053 26.7617 127.053 27.2188V27.5703C127.053 27.9688 127.105 28.3379 127.211 28.6777C127.322 29.0176 127.483 29.3135 127.694 29.5654C127.911 29.8115 128.169 30.0049 128.468 30.1455C128.772 30.2803 129.118 30.3477 129.505 30.3477C129.991 30.3477 130.431 30.2539 130.823 30.0664C131.222 29.873 131.567 29.5889 131.86 29.2139L133.029 30.4268C132.83 30.7197 132.561 31.001 132.221 31.2705C131.887 31.54 131.482 31.7598 131.008 31.9297C130.533 32.0938 129.985 32.1758 129.364 32.1758ZM129.742 20.8994H128.002L127.896 19.6865C128.189 19.6689 128.427 19.6396 128.608 19.5986C128.79 19.5518 128.922 19.4873 129.004 19.4053C129.092 19.3174 129.136 19.209 129.136 19.0801C129.136 18.9629 129.101 18.8633 129.03 18.7812C128.966 18.6992 128.875 18.6348 128.758 18.5879C128.641 18.541 128.5 18.5088 128.336 18.4912C128.178 18.4678 128.005 18.4561 127.817 18.4561L127.879 17.3398C128.406 17.3398 128.869 17.3809 129.268 17.4629C129.666 17.5391 129.997 17.6533 130.261 17.8057C130.53 17.9521 130.732 18.1309 130.867 18.3418C131.008 18.5469 131.078 18.7783 131.078 19.0361C131.078 19.4463 130.938 19.751 130.656 19.9502C130.381 20.1494 130.076 20.2725 129.742 20.3193V20.8994Z" fill="#28AFE4"/>
</g>
<g filter="url(#filter2_d_5_241)">
<path d="M30.9593 39.9896C30.8736 40.0035 30.7867 40.0035 30.701 39.9896C30.5269 39.9245 30.3763 39.795 30.2724 39.6213C30.1685 39.4476 30.1171 39.2393 30.126 39.0285V38.0674C30.1263 33.7241 31.4687 29.5232 33.9123 26.2186C36.3558 22.914 39.7405 20.7221 43.4588 20.0364V15.9611C43.4588 15.7826 43.5019 15.6077 43.5833 15.4558C43.6646 15.304 43.781 15.1813 43.9194 15.1015C44.0579 15.0216 44.2128 14.9879 44.3669 15.0039C44.5211 15.0199 44.6683 15.0851 44.7921 15.1922L54.7917 23.8425C54.8952 23.932 54.9792 24.0481 55.037 24.1816C55.0949 24.315 55.125 24.4622 55.125 24.6114C55.125 24.7606 55.0949 24.9078 55.037 25.0412C54.9792 25.1747 54.8952 25.2908 54.7917 25.3803L44.7921 34.0306C44.6683 34.1377 44.5211 34.2029 44.3669 34.2189C44.2128 34.2349 44.0579 34.2012 43.9194 34.1213C43.781 34.0415 43.6646 33.9188 43.5833 33.767C43.5019 33.6151 43.4588 33.4402 43.4588 33.2617V29.6574C39.4236 30.417 35.8102 32.9791 33.4009 36.789L31.6343 39.5956C31.5567 39.718 31.4551 39.8176 31.3378 39.886C31.2205 39.9545 31.0908 39.99 30.9593 39.9896ZM45.1254 17.8834V20.8822C45.1266 21.1198 45.0515 21.3495 44.9146 21.527C44.7776 21.7045 44.5885 21.8172 44.3838 21.8433C41.2417 22.2387 38.3044 23.8348 36.0395 26.3776C33.7745 28.9204 32.3118 32.2638 31.8843 35.876L32.0176 35.6741C33.4436 33.4157 35.2663 31.5294 37.367 30.1383C39.4676 28.7472 41.7989 27.8824 44.2088 27.6005C44.3249 27.5881 44.4421 27.6039 44.5526 27.6469C44.6631 27.69 44.7646 27.7593 44.8504 27.8504C44.9367 27.9403 45.0058 28.05 45.0532 28.1725C45.1005 28.295 45.1251 28.4276 45.1254 28.5617V31.3394L52.9001 24.6114L45.1254 17.8834Z" fill="#28AFE4"/>
</g>
<defs>
<filter id="filter0_d_5_241" x="0.125" y="0" width="158" height="64" filterUnits="userSpaceOnUse" color-interpolation-filters="sRGB">
<feFlood flood-opacity="0" result="BackgroundImageFix"/>
<feColorMatrix in="SourceAlpha" type="matrix" values="0 0 0 0 0 0 0 0 0 0 0 0 0 0 0 0 0 0 127 0" result="hardAlpha"/>
<feOffset dx="-4" dy="10"/>
<feGaussianBlur stdDeviation="2"/>
<feComposite in2="hardAlpha" operator="out"/>
<feColorMatrix type="matrix" values="0 0 0 0 0 0 0 0 0 0 0 0 0 0 0 0 0 0 0.25 0"/>
<feBlend mode="normal" in2="BackgroundImageFix" result="effect1_dropShadow_5_241"/>
<feBlend mode="normal" in="SourceGraphic" in2="effect1_dropShadow_5_241" result="shape"/>
</filter>
<filter id="filter1_d_5_241" x="66.9512" y="17.3398" width="66.2715" height="28.8359" filterUnits="userSpaceOnUse" color-interpolation-filters="sRGB">
<feFlood flood-opacity="0" result="BackgroundImageFix"/>
<feColorMatrix in="SourceAlpha" type="matrix" values="0 0 0 0 0 0 0 0 0 0 0 0 0 0 0 0 0 0 127 0" result="hardAlpha"/>
<feOffset dx="-4" dy="10"/>
<feGaussianBlur stdDeviation="2"/>
<feComposite in2="hardAlpha" operator="out"/>
<feColorMatrix type="matrix" values="0 0 0 0 0 0 0 0 0 0 0 0 0 0 0 0 0 0 0.25 0"/>
<feBlend mode="normal" in2="BackgroundImageFix" result="effect1_dropShadow_5_241"/>
<feBlend mode="normal" in="SourceGraphic" in2="effect1_dropShadow_5_241" result="shape"/>
</filter>
<filter id="filter2_d_5_241" x="22.125" y="15" width="33" height="39" filterUnits="userSpaceOnUse" color-interpolation-filters="sRGB">
<feFlood flood-opacity="0" result="BackgroundImageFix"/>
<feColorMatrix in="SourceAlpha" type="matrix" values="0 0 0 0 0 0 0 0 0 0 0 0 0 0 0 0 0 0 127 0" result="hardAlpha"/>
<feOffset dx="-4" dy="10"/>
<feGaussianBlur stdDeviation="2"/>
<feComposite in2="hardAlpha" operator="out"/>
<feColorMatrix type="matrix" values="0 0 0 0 0 0 0 0 0 0 0 0 0 0 0 0 0 0 0.25 0"/>
<feBlend mode="normal" in2="BackgroundImageFix" result="effect1_dropShadow_5_241"/>
<feBlend mode="normal" in="SourceGraphic" in2="effect1_dropShadow_5_241" result="shape"/>
</filter>
</defs>
</svg>
